<?xml version="1.0" encoding="utf-8" standalone="no"?>
<!DOCTYPE svg PUBLIC "-//W3C//DTD SVG 1.1//EN"
  "http://www.w3.org/Graphics/SVG/1.1/DTD/svg11.dtd">
<!-- Created with matplotlib (https://matplotlib.org/) -->
<svg height="345.6pt" version="1.1" viewBox="0 0 460.8 345.6" width="460.8pt" xmlns="http://www.w3.org/2000/svg" xmlns:xlink="http://www.w3.org/1999/xlink">
 <defs>
  <style type="text/css">
*{stroke-linecap:butt;stroke-linejoin:round;}
  </style>
 </defs>
 <g id="figure_1">
  <g id="patch_1">
   <path d="M 0 345.6 
L 460.8 345.6 
L 460.8 0 
L 0 0 
z
" style="fill:#ffffff;"/>
  </g>
  <g id="axes_1">
   <g id="patch_2">
    <path d="M 57.6 307.584 
L 414.72 307.584 
L 414.72 41.472 
L 57.6 41.472 
z
" style="fill:#ffffff;"/>
   </g>
   <g id="matplotlib.axis_1">
    <g id="xtick_1">
     <g id="line2d_1">
      <defs>
       <path d="M 0 0 
L 0 3.5 
" id="md6714d7f96" style="stroke:#000000;stroke-width:0.8;"/>
      </defs>
      <g>
       <use style="stroke:#000000;stroke-width:0.8;" x="73.832727" xlink:href="#md6714d7f96" y="307.584"/>
      </g>
     </g>
     <g id="text_1">
      <!-- 0 -->
      <defs>
       <path d="M 31.78125 66.40625 
Q 24.171875 66.40625 20.328125 58.90625 
Q 16.5 51.421875 16.5 36.375 
Q 16.5 21.390625 20.328125 13.890625 
Q 24.171875 6.390625 31.78125 6.390625 
Q 39.453125 6.390625 43.28125 13.890625 
Q 47.125 21.390625 47.125 36.375 
Q 47.125 51.421875 43.28125 58.90625 
Q 39.453125 66.40625 31.78125 66.40625 
z
M 31.78125 74.21875 
Q 44.046875 74.21875 50.515625 64.515625 
Q 56.984375 54.828125 56.984375 36.375 
Q 56.984375 17.96875 50.515625 8.265625 
Q 44.046875 -1.421875 31.78125 -1.421875 
Q 19.53125 -1.421875 13.0625 8.265625 
Q 6.59375 17.96875 6.59375 36.375 
Q 6.59375 54.828125 13.0625 64.515625 
Q 19.53125 74.21875 31.78125 74.21875 
z
" id="DejaVuSans-48"/>
      </defs>
      <g transform="translate(70.651477 322.182437)scale(0.1 -0.1)">
       <use xlink:href="#DejaVuSans-48"/>
      </g>
     </g>
    </g>
    <g id="xtick_2">
     <g id="line2d_2">
      <g>
       <use style="stroke:#000000;stroke-width:0.8;" x="133.293267" xlink:href="#md6714d7f96" y="307.584"/>
      </g>
     </g>
     <g id="text_2">
      <!-- 50 -->
      <defs>
       <path d="M 10.796875 72.90625 
L 49.515625 72.90625 
L 49.515625 64.59375 
L 19.828125 64.59375 
L 19.828125 46.734375 
Q 21.96875 47.46875 24.109375 47.828125 
Q 26.265625 48.1875 28.421875 48.1875 
Q 40.625 48.1875 47.75 41.5 
Q 54.890625 34.8125 54.890625 23.390625 
Q 54.890625 11.625 47.5625 5.09375 
Q 40.234375 -1.421875 26.90625 -1.421875 
Q 22.3125 -1.421875 17.546875 -0.640625 
Q 12.796875 0.140625 7.71875 1.703125 
L 7.71875 11.625 
Q 12.109375 9.234375 16.796875 8.0625 
Q 21.484375 6.890625 26.703125 6.890625 
Q 35.15625 6.890625 40.078125 11.328125 
Q 45.015625 15.765625 45.015625 23.390625 
Q 45.015625 31 40.078125 35.4375 
Q 35.15625 39.890625 26.703125 39.890625 
Q 22.75 39.890625 18.8125 39.015625 
Q 14.890625 38.140625 10.796875 36.28125 
z
" id="DejaVuSans-53"/>
      </defs>
      <g transform="translate(126.930767 322.182437)scale(0.1 -0.1)">
       <use xlink:href="#DejaVuSans-53"/>
       <use x="63.623047" xlink:href="#DejaVuSans-48"/>
      </g>
     </g>
    </g>
    <g id="xtick_3">
     <g id="line2d_3">
      <g>
       <use style="stroke:#000000;stroke-width:0.8;" x="192.753806" xlink:href="#md6714d7f96" y="307.584"/>
      </g>
     </g>
     <g id="text_3">
      <!-- 100 -->
      <defs>
       <path d="M 12.40625 8.296875 
L 28.515625 8.296875 
L 28.515625 63.921875 
L 10.984375 60.40625 
L 10.984375 69.390625 
L 28.421875 72.90625 
L 38.28125 72.90625 
L 38.28125 8.296875 
L 54.390625 8.296875 
L 54.390625 0 
L 12.40625 0 
z
" id="DejaVuSans-49"/>
      </defs>
      <g transform="translate(183.210056 322.182437)scale(0.1 -0.1)">
       <use xlink:href="#DejaVuSans-49"/>
       <use x="63.623047" xlink:href="#DejaVuSans-48"/>
       <use x="127.246094" xlink:href="#DejaVuSans-48"/>
      </g>
     </g>
    </g>
    <g id="xtick_4">
     <g id="line2d_4">
      <g>
       <use style="stroke:#000000;stroke-width:0.8;" x="252.214346" xlink:href="#md6714d7f96" y="307.584"/>
      </g>
     </g>
     <g id="text_4">
      <!-- 150 -->
      <g transform="translate(242.670596 322.182437)scale(0.1 -0.1)">
       <use xlink:href="#DejaVuSans-49"/>
       <use x="63.623047" xlink:href="#DejaVuSans-53"/>
       <use x="127.246094" xlink:href="#DejaVuSans-48"/>
      </g>
     </g>
    </g>
    <g id="xtick_5">
     <g id="line2d_5">
      <g>
       <use style="stroke:#000000;stroke-width:0.8;" x="311.674885" xlink:href="#md6714d7f96" y="307.584"/>
      </g>
     </g>
     <g id="text_5">
      <!-- 200 -->
      <defs>
       <path d="M 19.1875 8.296875 
L 53.609375 8.296875 
L 53.609375 0 
L 7.328125 0 
L 7.328125 8.296875 
Q 12.9375 14.109375 22.625 23.890625 
Q 32.328125 33.6875 34.8125 36.53125 
Q 39.546875 41.84375 41.421875 45.53125 
Q 43.3125 49.21875 43.3125 52.78125 
Q 43.3125 58.59375 39.234375 62.25 
Q 35.15625 65.921875 28.609375 65.921875 
Q 23.96875 65.921875 18.8125 64.3125 
Q 13.671875 62.703125 7.8125 59.421875 
L 7.8125 69.390625 
Q 13.765625 71.78125 18.9375 73 
Q 24.125 74.21875 28.421875 74.21875 
Q 39.75 74.21875 46.484375 68.546875 
Q 53.21875 62.890625 53.21875 53.421875 
Q 53.21875 48.921875 51.53125 44.890625 
Q 49.859375 40.875 45.40625 35.40625 
Q 44.1875 33.984375 37.640625 27.21875 
Q 31.109375 20.453125 19.1875 8.296875 
z
" id="DejaVuSans-50"/>
      </defs>
      <g transform="translate(302.131135 322.182437)scale(0.1 -0.1)">
       <use xlink:href="#DejaVuSans-50"/>
       <use x="63.623047" xlink:href="#DejaVuSans-48"/>
       <use x="127.246094" xlink:href="#DejaVuSans-48"/>
      </g>
     </g>
    </g>
    <g id="xtick_6">
     <g id="line2d_6">
      <g>
       <use style="stroke:#000000;stroke-width:0.8;" x="371.135425" xlink:href="#md6714d7f96" y="307.584"/>
      </g>
     </g>
     <g id="text_6">
      <!-- 250 -->
      <g transform="translate(361.591675 322.182437)scale(0.1 -0.1)">
       <use xlink:href="#DejaVuSans-50"/>
       <use x="63.623047" xlink:href="#DejaVuSans-53"/>
       <use x="127.246094" xlink:href="#DejaVuSans-48"/>
      </g>
     </g>
    </g>
   </g>
   <g id="matplotlib.axis_2">
    <g id="ytick_1">
     <g id="line2d_7">
      <defs>
       <path d="M 0 0 
L -3.5 0 
" id="m3a2c26163c" style="stroke:#000000;stroke-width:0.8;"/>
      </defs>
      <g>
       <use style="stroke:#000000;stroke-width:0.8;" x="57.6" xlink:href="#m3a2c26163c" y="295.488"/>
      </g>
     </g>
     <g id="text_7">
      <!-- 0.0 -->
      <defs>
       <path d="M 10.6875 12.40625 
L 21 12.40625 
L 21 0 
L 10.6875 0 
z
" id="DejaVuSans-46"/>
      </defs>
      <g transform="translate(34.696875 299.287219)scale(0.1 -0.1)">
       <use xlink:href="#DejaVuSans-48"/>
       <use x="63.623047" xlink:href="#DejaVuSans-46"/>
       <use x="95.410156" xlink:href="#DejaVuSans-48"/>
      </g>
     </g>
    </g>
    <g id="ytick_2">
     <g id="line2d_8">
      <g>
       <use style="stroke:#000000;stroke-width:0.8;" x="57.6" xlink:href="#m3a2c26163c" y="247.104"/>
      </g>
     </g>
     <g id="text_8">
      <!-- 0.2 -->
      <g transform="translate(34.696875 250.903219)scale(0.1 -0.1)">
       <use xlink:href="#DejaVuSans-48"/>
       <use x="63.623047" xlink:href="#DejaVuSans-46"/>
       <use x="95.410156" xlink:href="#DejaVuSans-50"/>
      </g>
     </g>
    </g>
    <g id="ytick_3">
     <g id="line2d_9">
      <g>
       <use style="stroke:#000000;stroke-width:0.8;" x="57.6" xlink:href="#m3a2c26163c" y="198.72"/>
      </g>
     </g>
     <g id="text_9">
      <!-- 0.4 -->
      <defs>
       <path d="M 37.796875 64.3125 
L 12.890625 25.390625 
L 37.796875 25.390625 
z
M 35.203125 72.90625 
L 47.609375 72.90625 
L 47.609375 25.390625 
L 58.015625 25.390625 
L 58.015625 17.1875 
L 47.609375 17.1875 
L 47.609375 0 
L 37.796875 0 
L 37.796875 17.1875 
L 4.890625 17.1875 
L 4.890625 26.703125 
z
" id="DejaVuSans-52"/>
      </defs>
      <g transform="translate(34.696875 202.519219)scale(0.1 -0.1)">
       <use xlink:href="#DejaVuSans-48"/>
       <use x="63.623047" xlink:href="#DejaVuSans-46"/>
       <use x="95.410156" xlink:href="#DejaVuSans-52"/>
      </g>
     </g>
    </g>
    <g id="ytick_4">
     <g id="line2d_10">
      <g>
       <use style="stroke:#000000;stroke-width:0.8;" x="57.6" xlink:href="#m3a2c26163c" y="150.336"/>
      </g>
     </g>
     <g id="text_10">
      <!-- 0.6 -->
      <defs>
       <path d="M 33.015625 40.375 
Q 26.375 40.375 22.484375 35.828125 
Q 18.609375 31.296875 18.609375 23.390625 
Q 18.609375 15.53125 22.484375 10.953125 
Q 26.375 6.390625 33.015625 6.390625 
Q 39.65625 6.390625 43.53125 10.953125 
Q 47.40625 15.53125 47.40625 23.390625 
Q 47.40625 31.296875 43.53125 35.828125 
Q 39.65625 40.375 33.015625 40.375 
z
M 52.59375 71.296875 
L 52.59375 62.3125 
Q 48.875 64.0625 45.09375 64.984375 
Q 41.3125 65.921875 37.59375 65.921875 
Q 27.828125 65.921875 22.671875 59.328125 
Q 17.53125 52.734375 16.796875 39.40625 
Q 19.671875 43.65625 24.015625 45.921875 
Q 28.375 48.1875 33.59375 48.1875 
Q 44.578125 48.1875 50.953125 41.515625 
Q 57.328125 34.859375 57.328125 23.390625 
Q 57.328125 12.15625 50.6875 5.359375 
Q 44.046875 -1.421875 33.015625 -1.421875 
Q 20.359375 -1.421875 13.671875 8.265625 
Q 6.984375 17.96875 6.984375 36.375 
Q 6.984375 53.65625 15.1875 63.9375 
Q 23.390625 74.21875 37.203125 74.21875 
Q 40.921875 74.21875 44.703125 73.484375 
Q 48.484375 72.75 52.59375 71.296875 
z
" id="DejaVuSans-54"/>
      </defs>
      <g transform="translate(34.696875 154.135219)scale(0.1 -0.1)">
       <use xlink:href="#DejaVuSans-48"/>
       <use x="63.623047" xlink:href="#DejaVuSans-46"/>
       <use x="95.410156" xlink:href="#DejaVuSans-54"/>
      </g>
     </g>
    </g>
    <g id="ytick_5">
     <g id="line2d_11">
      <g>
       <use style="stroke:#000000;stroke-width:0.8;" x="57.6" xlink:href="#m3a2c26163c" y="101.952"/>
      </g>
     </g>
     <g id="text_11">
      <!-- 0.8 -->
      <defs>
       <path d="M 31.78125 34.625 
Q 24.75 34.625 20.71875 30.859375 
Q 16.703125 27.09375 16.703125 20.515625 
Q 16.703125 13.921875 20.71875 10.15625 
Q 24.75 6.390625 31.78125 6.390625 
Q 38.8125 6.390625 42.859375 10.171875 
Q 46.921875 13.96875 46.921875 20.515625 
Q 46.921875 27.09375 42.890625 30.859375 
Q 38.875 34.625 31.78125 34.625 
z
M 21.921875 38.8125 
Q 15.578125 40.375 12.03125 44.71875 
Q 8.5 49.078125 8.5 55.328125 
Q 8.5 64.0625 14.71875 69.140625 
Q 20.953125 74.21875 31.78125 74.21875 
Q 42.671875 74.21875 48.875 69.140625 
Q 55.078125 64.0625 55.078125 55.328125 
Q 55.078125 49.078125 51.53125 44.71875 
Q 48 40.375 41.703125 38.8125 
Q 48.828125 37.15625 52.796875 32.3125 
Q 56.78125 27.484375 56.78125 20.515625 
Q 56.78125 9.90625 50.3125 4.234375 
Q 43.84375 -1.421875 31.78125 -1.421875 
Q 19.734375 -1.421875 13.25 4.234375 
Q 6.78125 9.90625 6.78125 20.515625 
Q 6.78125 27.484375 10.78125 32.3125 
Q 14.796875 37.15625 21.921875 38.8125 
z
M 18.3125 54.390625 
Q 18.3125 48.734375 21.84375 45.5625 
Q 25.390625 42.390625 31.78125 42.390625 
Q 38.140625 42.390625 41.71875 45.5625 
Q 45.3125 48.734375 45.3125 54.390625 
Q 45.3125 60.0625 41.71875 63.234375 
Q 38.140625 66.40625 31.78125 66.40625 
Q 25.390625 66.40625 21.84375 63.234375 
Q 18.3125 60.0625 18.3125 54.390625 
z
" id="DejaVuSans-56"/>
      </defs>
      <g transform="translate(34.696875 105.751219)scale(0.1 -0.1)">
       <use xlink:href="#DejaVuSans-48"/>
       <use x="63.623047" xlink:href="#DejaVuSans-46"/>
       <use x="95.410156" xlink:href="#DejaVuSans-56"/>
      </g>
     </g>
    </g>
    <g id="ytick_6">
     <g id="line2d_12">
      <g>
       <use style="stroke:#000000;stroke-width:0.8;" x="57.6" xlink:href="#m3a2c26163c" y="53.568"/>
      </g>
     </g>
     <g id="text_12">
      <!-- 1.0 -->
      <g transform="translate(34.696875 57.367219)scale(0.1 -0.1)">
       <use xlink:href="#DejaVuSans-49"/>
       <use x="63.623047" xlink:href="#DejaVuSans-46"/>
       <use x="95.410156" xlink:href="#DejaVuSans-48"/>
      </g>
     </g>
    </g>
   </g>
   <g id="line2d_13">
    <path clip-path="url(#pe28bef693e)" d="M 73.832727 196.634455 
L 75.021938 121.88634 
L 76.211149 139.612102 
L 77.40036 113.812644 
L 78.58957 105.831757 
L 79.778781 152.608792 
L 80.967992 112.181544 
L 82.157203 121.364397 
L 83.346414 139.001555 
L 84.535624 174.96731 
L 85.724835 132.745118 
L 86.914046 79.21744 
L 88.103257 108.484821 
L 89.292468 112.891572 
L 90.481678 120.478735 
L 91.670889 194.498955 
L 92.8601 178.925179 
L 94.049311 119.491946 
L 95.238521 83.54319 
L 96.427732 108.829022 
L 97.616943 119.326182 
L 98.806154 153.506006 
L 99.995365 120.449769 
L 101.184575 168.845376 
L 102.373786 129.147723 
L 103.562997 164.480939 
L 104.752208 106.359569 
L 107.130629 166.438705 
L 108.31984 113.151769 
L 109.509051 117.665137 
L 110.698262 178.878973 
L 111.887473 132.096112 
L 113.076683 106.069156 
L 115.455105 154.567119 
L 116.644316 150.82017 
L 117.833526 161.690787 
L 119.022737 266.257347 
L 120.211948 126.031523 
L 121.401159 179.182575 
L 122.59037 161.746155 
L 123.77958 169.146365 
L 124.968791 208.568135 
L 126.158002 165.570336 
L 127.347213 163.475392 
L 128.536424 106.712378 
L 129.725634 112.917455 
L 130.914845 197.503682 
L 132.104056 123.511472 
L 133.293267 116.993802 
L 134.482478 144.535081 
L 135.671688 79.606773 
L 136.860899 124.045198 
L 138.05011 193.534015 
L 139.239321 153.212543 
L 140.428531 168.350686 
L 141.617742 168.358799 
L 142.806953 133.007117 
L 143.996164 120.343198 
L 145.185375 190.736353 
L 146.374585 113.821419 
L 147.563796 155.476525 
L 148.753007 98.227086 
L 149.942218 116.797075 
L 151.131429 145.087312 
L 152.320639 122.049754 
L 153.50985 74.485553 
L 154.699061 122.293005 
L 155.888272 108.170355 
L 157.077483 124.367869 
L 158.266693 101.671163 
L 159.455904 108.002211 
L 160.645115 155.241658 
L 161.834326 182.957658 
L 163.023536 114.333183 
L 164.212747 132.774413 
L 165.401958 142.458195 
L 166.591169 119.340619 
L 167.78038 122.58449 
L 168.96959 237.751308 
L 170.158801 160.504661 
L 171.348012 140.332394 
L 172.537223 158.383459 
L 173.726434 167.221061 
L 174.915644 155.354336 
L 176.104855 122.413903 
L 177.294066 234.753871 
L 178.483277 112.227465 
L 179.672488 156.206761 
L 180.861698 167.196857 
L 182.050909 118.814256 
L 183.24012 118.722287 
L 184.429331 118.342995 
L 185.618541 151.96675 
L 186.807752 176.863307 
L 187.996963 211.022112 
L 189.186174 179.906534 
L 190.375385 137.669175 
L 191.564595 163.658322 
L 192.753806 171.73633 
L 193.943017 126.75304 
L 195.132228 166.72229 
L 196.321439 132.39914 
L 197.510649 156.34097 
L 198.69986 109.601659 
L 199.889071 166.3798 
L 201.078282 108.194011 
L 202.267493 135.770118 
L 203.456703 114.432446 
L 204.645914 159.825476 
L 205.835125 167.083974 
L 207.024336 127.674124 
L 208.213546 200.137305 
L 209.402757 145.291985 
L 210.591968 189.800013 
L 211.781179 163.017495 
L 212.97039 161.304299 
L 214.1596 99.749747 
L 215.348811 167.488293 
L 216.538022 126.998923 
L 217.727233 153.232579 
L 218.916444 100.258584 
L 220.105654 169.484898 
L 221.294865 169.640848 
L 222.484076 191.113126 
L 223.673287 172.4538 
L 224.862498 89.301768 
L 226.051708 93.609435 
L 227.240919 153.039523 
L 228.43013 104.924071 
L 229.619341 118.874705 
L 230.808551 175.942803 
L 231.997762 128.958006 
L 233.186973 158.09718 
L 234.376184 242.722597 
L 235.565395 119.464856 
L 236.754605 115.451706 
L 237.943816 110.633989 
L 239.133027 168.098793 
L 240.322238 94.275098 
L 241.511449 113.564565 
L 242.700659 204.506601 
L 243.88987 152.892419 
L 245.079081 269.612354 
L 246.268292 115.366551 
L 247.457502 89.084925 
L 248.646713 116.462795 
L 249.835924 110.298255 
L 251.025135 152.03494 
L 252.214346 170.267078 
L 253.403556 122.22209 
L 254.592767 121.806001 
L 255.781978 144.76627 
L 256.971189 158.327219 
L 258.1604 117.66503 
L 259.34961 178.410602 
L 260.538821 194.764154 
L 261.728032 115.02435 
L 262.917243 149.611443 
L 264.106454 131.107863 
L 265.295664 131.753432 
L 266.484875 171.206033 
L 267.674086 104.776429 
L 268.863297 160.931991 
L 270.052507 103.936227 
L 271.241718 106.43063 
L 272.430929 163.440546 
L 273.62014 176.238434 
L 274.809351 110.873325 
L 275.998561 157.651228 
L 277.187772 104.929342 
L 278.376983 97.919733 
L 279.566194 216.885962 
L 280.755405 161.830802 
L 281.944615 159.161535 
L 283.133826 117.9608 
L 284.323037 205.714476 
L 285.512248 155.57482 
L 286.701459 123.745076 
L 287.890669 119.535336 
L 289.07988 154.264696 
L 290.269091 117.143253 
L 291.458302 177.261569 
L 292.647512 119.165472 
L 293.836723 120.088314 
L 295.025934 198.88274 
L 296.215145 96.712968 
L 297.404356 117.151011 
L 298.593566 105.446597 
L 299.782777 156.555091 
L 300.971988 149.591663 
L 302.161199 223.133419 
L 303.35041 123.891433 
L 304.53962 101.270528 
L 305.728831 145.193172 
L 306.918042 121.142506 
L 308.107253 116.939589 
L 309.296464 102.040855 
L 310.485674 160.632312 
L 311.674885 138.538018 
L 312.864096 112.032622 
L 314.053307 124.79413 
L 315.242517 169.882114 
L 316.431728 167.531413 
L 317.620939 100.90552 
L 318.81015 175.945176 
L 319.999361 170.081187 
L 321.188571 93.956965 
L 322.377782 79.326154 
L 323.566993 132.85217 
L 324.756204 114.796864 
L 325.945415 115.681419 
L 327.134625 116.120323 
L 328.323836 148.423686 
L 329.513047 107.723877 
L 331.891469 164.520737 
L 333.080679 96.174782 
L 334.26989 120.804658 
L 335.459101 81.141924 
L 336.648312 169.81838 
L 337.837522 138.071808 
L 339.026733 162.285832 
L 340.215944 168.541316 
L 341.405155 164.697691 
L 342.594366 102.381765 
L 343.783576 125.0567 
L 344.972787 102.719264 
L 346.161998 142.724866 
L 347.351209 118.319796 
L 348.54042 172.683 
L 349.72963 166.103859 
L 350.918841 100.8785 
L 352.108052 147.753485 
L 353.297263 105.582098 
L 354.486474 105.645625 
L 355.675684 78.800149 
L 356.864895 102.055457 
L 358.054106 199.650014 
L 359.243317 167.550023 
L 360.432527 117.793516 
L 361.621738 106.257666 
L 362.810949 122.184336 
L 364.00016 129.435156 
L 365.189371 158.413617 
L 366.378581 133.002353 
L 367.567792 127.66865 
L 368.757003 136.665407 
L 369.946214 161.133717 
L 371.135425 126.239079 
L 372.324635 105.936064 
L 373.513846 127.041109 
L 374.703057 108.439092 
L 375.892268 103.346957 
L 377.081479 77.649391 
L 378.270689 116.120216 
L 379.4599 170.274053 
L 380.649111 113.334095 
L 381.838322 169.16971 
L 383.027532 158.014072 
L 384.216743 110.417009 
L 385.405954 179.771352 
L 386.595165 176.222902 
L 387.784376 121.125696 
L 388.973586 136.761776 
L 390.162797 139.587123 
L 391.352008 104.762106 
L 392.541219 122.114177 
L 393.73043 121.37249 
L 394.91964 124.051199 
L 396.108851 120.919758 
L 397.298062 189.510951 
L 398.487273 131.393999 
L 398.487273 131.393999 
" style="fill:none;stroke:#ff0000;stroke-linecap:square;stroke-width:1.5;"/>
   </g>
   <g id="line2d_14">
    <path clip-path="url(#pe28bef693e)" d="M 73.832727 198.047462 
L 75.021938 107.327462 
L 76.211149 140.927731 
L 77.40036 103.967194 
L 78.58957 88.847194 
L 79.778781 163.104538 
L 80.967992 90.528538 
L 82.157203 114.048 
L 83.346414 119.759731 
L 84.535624 182.927462 
L 85.724835 139.248806 
L 86.914046 56.928269 
L 88.103257 88.847194 
L 89.292468 105.648538 
L 90.481678 107.327462 
L 91.670889 203.089075 
L 92.8601 193.680806 
L 94.049311 105.648538 
L 95.238521 65.327731 
L 96.427732 93.552538 
L 97.616943 107.327462 
L 98.806154 162.432 
L 99.995365 110.687731 
L 101.184575 172.007194 
L 102.373786 122.447462 
L 103.562997 172.849075 
L 104.752208 105.648538 
L 105.941419 144.288 
L 107.130629 166.128538 
L 108.31984 100.606925 
L 109.509051 103.967194 
L 110.698262 186.287731 
L 113.076683 85.486925 
L 114.265894 134.207194 
L 115.455105 164.447194 
L 116.644316 157.729075 
L 117.833526 174.528 
L 119.022737 290.448806 
L 120.211948 114.048 
L 121.401159 181.248538 
L 122.59037 172.849075 
L 123.77958 169.488806 
L 124.968791 219.888 
L 126.158002 169.152538 
L 127.347213 163.271462 
L 128.536424 89.183462 
L 129.725634 119.087194 
L 130.914845 208.128269 
L 132.104056 112.369075 
L 133.293267 102.288269 
L 134.482478 156.047731 
L 135.671688 58.607194 
L 136.860899 120.768538 
L 138.05011 204.768 
L 139.239321 166.128538 
L 140.428531 170.664538 
L 141.617742 174.528 
L 142.806953 130.846925 
L 143.996164 119.087194 
L 145.185375 196.199194 
L 146.374585 96.576538 
L 147.563796 172.849075 
L 148.753007 75.408538 
L 149.942218 103.967194 
L 151.131429 157.729075 
L 152.320639 119.087194 
L 153.50985 53.568 
L 154.699061 120.768538 
L 155.888272 88.847194 
L 157.077483 110.687731 
L 158.266693 84.480538 
L 159.455904 100.776269 
L 160.645115 166.128538 
L 161.834326 187.969075 
L 163.023536 109.008806 
L 165.401958 149.327194 
L 166.591169 107.327462 
L 167.78038 115.726925 
L 168.96959 266.926925 
L 170.158801 184.608806 
L 171.348012 135.888538 
L 172.537223 171.167731 
L 173.726434 174.694925 
L 174.915644 172.849075 
L 176.104855 110.687731 
L 177.294066 245.088806 
L 178.483277 105.648538 
L 179.672488 162.265075 
L 180.861698 169.152538 
L 182.050909 110.687731 
L 183.24012 109.008806 
L 184.429331 110.687731 
L 185.618541 140.927731 
L 186.807752 193.008269 
L 187.996963 219.888 
L 189.186174 187.969075 
L 190.375385 132.528269 
L 191.564595 168.143731 
L 192.753806 172.849075 
L 193.943017 132.528269 
L 195.132228 176.206925 
L 196.321439 127.489075 
L 197.510649 161.086925 
L 198.69986 120.432269 
L 199.889071 174.528 
L 201.078282 82.129075 
L 202.267493 132.528269 
L 203.456703 103.967194 
L 204.645914 169.488806 
L 205.835125 174.528 
L 207.024336 120.599194 
L 208.213546 204.768 
L 209.402757 140.927731 
L 210.591968 201.407731 
L 211.781179 171.167731 
L 212.97039 162.768269 
L 214.1596 77.087462 
L 215.348811 176.376269 
L 216.538022 109.008806 
L 217.727233 164.447194 
L 218.916444 78.768806 
L 220.105654 181.248538 
L 221.294865 169.488806 
L 222.484076 213.167462 
L 223.673287 172.849075 
L 224.862498 72.048269 
L 226.051708 72.048269 
L 227.240919 157.729075 
L 228.43013 92.207462 
L 229.619341 105.648538 
L 230.808551 187.969075 
L 231.997762 134.207194 
L 233.186973 166.801075 
L 234.376184 260.208806 
L 235.565395 103.967194 
L 236.754605 107.327462 
L 237.943816 90.528538 
L 239.133027 171.167731 
L 240.322238 80.447731 
L 241.511449 109.008806 
L 242.700659 209.807194 
L 243.88987 164.447194 
L 245.079081 295.488 
L 246.268292 98.928 
L 247.457502 70.366925 
L 248.646713 110.687731 
L 249.835924 92.376806 
L 251.025135 162.768269 
L 252.214346 171.167731 
L 253.403556 115.726925 
L 254.592767 106.151731 
L 255.781978 140.927731 
L 256.971189 165.959194 
L 258.1604 107.327462 
L 259.34961 181.248538 
L 260.538821 203.089075 
L 261.728032 105.648538 
L 262.917243 156.047731 
L 264.106454 124.128806 
L 265.295664 135.888538 
L 266.484875 177.888269 
L 267.674086 95.567731 
L 268.863297 177.048806 
L 270.052507 90.528538 
L 271.241718 85.992538 
L 272.430929 164.447194 
L 273.62014 186.287731 
L 274.809351 110.687731 
L 275.998561 166.128538 
L 277.187772 102.288269 
L 278.376983 73.727194 
L 279.566194 223.248269 
L 280.755405 178.391462 
L 281.944615 164.447194 
L 283.133826 109.008806 
L 284.323037 214.848806 
L 286.701459 115.726925 
L 287.890669 109.008806 
L 289.07988 164.447194 
L 290.269091 107.327462 
L 291.458302 189.648 
L 292.647512 107.327462 
L 293.836723 115.726925 
L 295.025934 208.128269 
L 296.215145 78.768806 
L 297.404356 103.967194 
L 298.593566 95.400806 
L 299.782777 160.416806 
L 300.971988 144.288 
L 302.161199 235.008 
L 303.35041 117.408269 
L 304.53962 82.129075 
L 305.728831 157.729075 
L 306.918042 117.408269 
L 308.107253 105.648538 
L 309.296464 87.168269 
L 310.485674 161.592538 
L 311.674885 120.432269 
L 312.864096 103.967194 
L 315.242517 174.694925 
L 316.431728 172.176538 
L 317.620939 82.296 
L 318.81015 179.400269 
L 319.999361 172.849075 
L 321.188571 73.727194 
L 322.377782 55.246925 
L 323.566993 139.248806 
L 324.756204 93.888806 
L 325.945415 105.648538 
L 327.134625 104.809075 
L 328.323836 154.368806 
L 329.513047 92.207462 
L 330.702258 136.894925 
L 331.891469 170.664538 
L 333.080679 77.087462 
L 334.26989 119.087194 
L 335.459101 56.928269 
L 336.648312 181.921075 
L 337.837522 138.073075 
L 339.026733 176.206925 
L 340.215944 172.176538 
L 341.405155 172.849075 
L 342.594366 92.207462 
L 343.783576 115.726925 
L 344.972787 84.480538 
L 346.161998 137.567462 
L 347.351209 112.369075 
L 348.54042 179.567194 
L 349.72963 169.488806 
L 350.918841 85.486925 
L 352.108052 152.687462 
L 353.297263 97.249075 
L 354.486474 102.288269 
L 355.675684 60.288538 
L 356.864895 83.641075 
L 358.054106 208.295194 
L 359.243317 178.897075 
L 360.432527 111.190925 
L 361.621738 98.928 
L 362.810949 109.008806 
L 364.00016 132.528269 
L 365.189371 172.849075 
L 366.378581 137.567462 
L 367.567792 122.447462 
L 368.757003 134.543462 
L 369.946214 171.167731 
L 371.135425 120.768538 
L 372.324635 90.528538 
L 373.513846 114.048 
L 374.703057 87.671462 
L 375.892268 103.967194 
L 377.081479 53.568 
L 378.270689 109.008806 
L 379.4599 175.367462 
L 380.649111 102.288269 
L 381.838322 173.016 
L 383.027532 174.528 
L 384.216743 114.048 
L 385.405954 184.608806 
L 386.595165 182.927462 
L 387.784376 105.648538 
L 388.973586 137.231194 
L 390.162797 135.888538 
L 391.352008 90.695462 
L 392.541219 103.967194 
L 393.73043 110.687731 
L 394.91964 110.687731 
L 396.108851 109.008806 
L 397.298062 193.511462 
L 398.487273 135.888538 
L 398.487273 135.888538 
" style="fill:none;stroke:#0000ff;stroke-linecap:square;stroke-width:1.5;"/>
   </g>
   <g id="patch_3">
    <path d="M 57.6 307.584 
L 57.6 41.472 
" style="fill:none;stroke:#000000;stroke-linecap:square;stroke-linejoin:miter;stroke-width:0.8;"/>
   </g>
   <g id="patch_4">
    <path d="M 414.72 307.584 
L 414.72 41.472 
" style="fill:none;stroke:#000000;stroke-linecap:square;stroke-linejoin:miter;stroke-width:0.8;"/>
   </g>
   <g id="patch_5">
    <path d="M 57.6 307.584 
L 414.72 307.584 
" style="fill:none;stroke:#000000;stroke-linecap:square;stroke-linejoin:miter;stroke-width:0.8;"/>
   </g>
   <g id="patch_6">
    <path d="M 57.6 41.472 
L 414.72 41.472 
" style="fill:none;stroke:#000000;stroke-linecap:square;stroke-linejoin:miter;stroke-width:0.8;"/>
   </g>
   <g id="text_13">
    <!-- SVM Train Score: 0.9266830559121048 -->
    <defs>
     <path d="M 53.515625 70.515625 
L 53.515625 60.890625 
Q 47.90625 63.578125 42.921875 64.890625 
Q 37.9375 66.21875 33.296875 66.21875 
Q 25.25 66.21875 20.875 63.09375 
Q 16.5 59.96875 16.5 54.203125 
Q 16.5 49.359375 19.40625 46.890625 
Q 22.3125 44.4375 30.421875 42.921875 
L 36.375 41.703125 
Q 47.40625 39.59375 52.65625 34.296875 
Q 57.90625 29 57.90625 20.125 
Q 57.90625 9.515625 50.796875 4.046875 
Q 43.703125 -1.421875 29.984375 -1.421875 
Q 24.8125 -1.421875 18.96875 -0.25 
Q 13.140625 0.921875 6.890625 3.21875 
L 6.890625 13.375 
Q 12.890625 10.015625 18.65625 8.296875 
Q 24.421875 6.59375 29.984375 6.59375 
Q 38.421875 6.59375 43.015625 9.90625 
Q 47.609375 13.234375 47.609375 19.390625 
Q 47.609375 24.75 44.3125 27.78125 
Q 41.015625 30.8125 33.5 32.328125 
L 27.484375 33.5 
Q 16.453125 35.6875 11.515625 40.375 
Q 6.59375 45.0625 6.59375 53.421875 
Q 6.59375 63.09375 13.40625 68.65625 
Q 20.21875 74.21875 32.171875 74.21875 
Q 37.3125 74.21875 42.625 73.28125 
Q 47.953125 72.359375 53.515625 70.515625 
z
" id="DejaVuSans-83"/>
     <path d="M 28.609375 0 
L 0.78125 72.90625 
L 11.078125 72.90625 
L 34.1875 11.53125 
L 57.328125 72.90625 
L 67.578125 72.90625 
L 39.796875 0 
z
" id="DejaVuSans-86"/>
     <path d="M 9.8125 72.90625 
L 24.515625 72.90625 
L 43.109375 23.296875 
L 61.8125 72.90625 
L 76.515625 72.90625 
L 76.515625 0 
L 66.890625 0 
L 66.890625 64.015625 
L 48.09375 14.015625 
L 38.1875 14.015625 
L 19.390625 64.015625 
L 19.390625 0 
L 9.8125 0 
z
" id="DejaVuSans-77"/>
     <path id="DejaVuSans-32"/>
     <path d="M -0.296875 72.90625 
L 61.375 72.90625 
L 61.375 64.59375 
L 35.5 64.59375 
L 35.5 0 
L 25.59375 0 
L 25.59375 64.59375 
L -0.296875 64.59375 
z
" id="DejaVuSans-84"/>
     <path d="M 41.109375 46.296875 
Q 39.59375 47.171875 37.8125 47.578125 
Q 36.03125 48 33.890625 48 
Q 26.265625 48 22.1875 43.046875 
Q 18.109375 38.09375 18.109375 28.8125 
L 18.109375 0 
L 9.078125 0 
L 9.078125 54.6875 
L 18.109375 54.6875 
L 18.109375 46.1875 
Q 20.953125 51.171875 25.484375 53.578125 
Q 30.03125 56 36.53125 56 
Q 37.453125 56 38.578125 55.875 
Q 39.703125 55.765625 41.0625 55.515625 
z
" id="DejaVuSans-114"/>
     <path d="M 34.28125 27.484375 
Q 23.390625 27.484375 19.1875 25 
Q 14.984375 22.515625 14.984375 16.5 
Q 14.984375 11.71875 18.140625 8.90625 
Q 21.296875 6.109375 26.703125 6.109375 
Q 34.1875 6.109375 38.703125 11.40625 
Q 43.21875 16.703125 43.21875 25.484375 
L 43.21875 27.484375 
z
M 52.203125 31.203125 
L 52.203125 0 
L 43.21875 0 
L 43.21875 8.296875 
Q 40.140625 3.328125 35.546875 0.953125 
Q 30.953125 -1.421875 24.3125 -1.421875 
Q 15.921875 -1.421875 10.953125 3.296875 
Q 6 8.015625 6 15.921875 
Q 6 25.140625 12.171875 29.828125 
Q 18.359375 34.515625 30.609375 34.515625 
L 43.21875 34.515625 
L 43.21875 35.40625 
Q 43.21875 41.609375 39.140625 45 
Q 35.0625 48.390625 27.6875 48.390625 
Q 23 48.390625 18.546875 47.265625 
Q 14.109375 46.140625 10.015625 43.890625 
L 10.015625 52.203125 
Q 14.9375 54.109375 19.578125 55.046875 
Q 24.21875 56 28.609375 56 
Q 40.484375 56 46.34375 49.84375 
Q 52.203125 43.703125 52.203125 31.203125 
z
" id="DejaVuSans-97"/>
     <path d="M 9.421875 54.6875 
L 18.40625 54.6875 
L 18.40625 0 
L 9.421875 0 
z
M 9.421875 75.984375 
L 18.40625 75.984375 
L 18.40625 64.59375 
L 9.421875 64.59375 
z
" id="DejaVuSans-105"/>
     <path d="M 54.890625 33.015625 
L 54.890625 0 
L 45.90625 0 
L 45.90625 32.71875 
Q 45.90625 40.484375 42.875 44.328125 
Q 39.84375 48.1875 33.796875 48.1875 
Q 26.515625 48.1875 22.3125 43.546875 
Q 18.109375 38.921875 18.109375 30.90625 
L 18.109375 0 
L 9.078125 0 
L 9.078125 54.6875 
L 18.109375 54.6875 
L 18.109375 46.1875 
Q 21.34375 51.125 25.703125 53.5625 
Q 30.078125 56 35.796875 56 
Q 45.21875 56 50.046875 50.171875 
Q 54.890625 44.34375 54.890625 33.015625 
z
" id="DejaVuSans-110"/>
     <path d="M 48.78125 52.59375 
L 48.78125 44.1875 
Q 44.96875 46.296875 41.140625 47.34375 
Q 37.3125 48.390625 33.40625 48.390625 
Q 24.65625 48.390625 19.8125 42.84375 
Q 14.984375 37.3125 14.984375 27.296875 
Q 14.984375 17.28125 19.8125 11.734375 
Q 24.65625 6.203125 33.40625 6.203125 
Q 37.3125 6.203125 41.140625 7.25 
Q 44.96875 8.296875 48.78125 10.40625 
L 48.78125 2.09375 
Q 45.015625 0.34375 40.984375 -0.53125 
Q 36.96875 -1.421875 32.421875 -1.421875 
Q 20.0625 -1.421875 12.78125 6.34375 
Q 5.515625 14.109375 5.515625 27.296875 
Q 5.515625 40.671875 12.859375 48.328125 
Q 20.21875 56 33.015625 56 
Q 37.15625 56 41.109375 55.140625 
Q 45.0625 54.296875 48.78125 52.59375 
z
" id="DejaVuSans-99"/>
     <path d="M 30.609375 48.390625 
Q 23.390625 48.390625 19.1875 42.75 
Q 14.984375 37.109375 14.984375 27.296875 
Q 14.984375 17.484375 19.15625 11.84375 
Q 23.34375 6.203125 30.609375 6.203125 
Q 37.796875 6.203125 41.984375 11.859375 
Q 46.1875 17.53125 46.1875 27.296875 
Q 46.1875 37.015625 41.984375 42.703125 
Q 37.796875 48.390625 30.609375 48.390625 
z
M 30.609375 56 
Q 42.328125 56 49.015625 48.375 
Q 55.71875 40.765625 55.71875 27.296875 
Q 55.71875 13.875 49.015625 6.21875 
Q 42.328125 -1.421875 30.609375 -1.421875 
Q 18.84375 -1.421875 12.171875 6.21875 
Q 5.515625 13.875 5.515625 27.296875 
Q 5.515625 40.765625 12.171875 48.375 
Q 18.84375 56 30.609375 56 
z
" id="DejaVuSans-111"/>
     <path d="M 56.203125 29.59375 
L 56.203125 25.203125 
L 14.890625 25.203125 
Q 15.484375 15.921875 20.484375 11.0625 
Q 25.484375 6.203125 34.421875 6.203125 
Q 39.59375 6.203125 44.453125 7.46875 
Q 49.3125 8.734375 54.109375 11.28125 
L 54.109375 2.78125 
Q 49.265625 0.734375 44.1875 -0.34375 
Q 39.109375 -1.421875 33.890625 -1.421875 
Q 20.796875 -1.421875 13.15625 6.1875 
Q 5.515625 13.8125 5.515625 26.8125 
Q 5.515625 40.234375 12.765625 48.109375 
Q 20.015625 56 32.328125 56 
Q 43.359375 56 49.78125 48.890625 
Q 56.203125 41.796875 56.203125 29.59375 
z
M 47.21875 32.234375 
Q 47.125 39.59375 43.09375 43.984375 
Q 39.0625 48.390625 32.421875 48.390625 
Q 24.90625 48.390625 20.390625 44.140625 
Q 15.875 39.890625 15.1875 32.171875 
z
" id="DejaVuSans-101"/>
     <path d="M 11.71875 12.40625 
L 22.015625 12.40625 
L 22.015625 0 
L 11.71875 0 
z
M 11.71875 51.703125 
L 22.015625 51.703125 
L 22.015625 39.3125 
L 11.71875 39.3125 
z
" id="DejaVuSans-58"/>
     <path d="M 10.984375 1.515625 
L 10.984375 10.5 
Q 14.703125 8.734375 18.5 7.8125 
Q 22.3125 6.890625 25.984375 6.890625 
Q 35.75 6.890625 40.890625 13.453125 
Q 46.046875 20.015625 46.78125 33.40625 
Q 43.953125 29.203125 39.59375 26.953125 
Q 35.25 24.703125 29.984375 24.703125 
Q 19.046875 24.703125 12.671875 31.3125 
Q 6.296875 37.9375 6.296875 49.421875 
Q 6.296875 60.640625 12.9375 67.421875 
Q 19.578125 74.21875 30.609375 74.21875 
Q 43.265625 74.21875 49.921875 64.515625 
Q 56.59375 54.828125 56.59375 36.375 
Q 56.59375 19.140625 48.40625 8.859375 
Q 40.234375 -1.421875 26.421875 -1.421875 
Q 22.703125 -1.421875 18.890625 -0.6875 
Q 15.09375 0.046875 10.984375 1.515625 
z
M 30.609375 32.421875 
Q 37.25 32.421875 41.125 36.953125 
Q 45.015625 41.5 45.015625 49.421875 
Q 45.015625 57.28125 41.125 61.84375 
Q 37.25 66.40625 30.609375 66.40625 
Q 23.96875 66.40625 20.09375 61.84375 
Q 16.21875 57.28125 16.21875 49.421875 
Q 16.21875 41.5 20.09375 36.953125 
Q 23.96875 32.421875 30.609375 32.421875 
z
" id="DejaVuSans-57"/>
     <path d="M 40.578125 39.3125 
Q 47.65625 37.796875 51.625 33 
Q 55.609375 28.21875 55.609375 21.1875 
Q 55.609375 10.40625 48.1875 4.484375 
Q 40.765625 -1.421875 27.09375 -1.421875 
Q 22.515625 -1.421875 17.65625 -0.515625 
Q 12.796875 0.390625 7.625 2.203125 
L 7.625 11.71875 
Q 11.71875 9.328125 16.59375 8.109375 
Q 21.484375 6.890625 26.8125 6.890625 
Q 36.078125 6.890625 40.9375 10.546875 
Q 45.796875 14.203125 45.796875 21.1875 
Q 45.796875 27.640625 41.28125 31.265625 
Q 36.765625 34.90625 28.71875 34.90625 
L 20.21875 34.90625 
L 20.21875 43.015625 
L 29.109375 43.015625 
Q 36.375 43.015625 40.234375 45.921875 
Q 44.09375 48.828125 44.09375 54.296875 
Q 44.09375 59.90625 40.109375 62.90625 
Q 36.140625 65.921875 28.71875 65.921875 
Q 24.65625 65.921875 20.015625 65.03125 
Q 15.375 64.15625 9.8125 62.3125 
L 9.8125 71.09375 
Q 15.4375 72.65625 20.34375 73.4375 
Q 25.25 74.21875 29.59375 74.21875 
Q 40.828125 74.21875 47.359375 69.109375 
Q 53.90625 64.015625 53.90625 55.328125 
Q 53.90625 49.265625 50.4375 45.09375 
Q 46.96875 40.921875 40.578125 39.3125 
z
" id="DejaVuSans-51"/>
    </defs>
    <g transform="translate(116.323125 35.472)scale(0.12 -0.12)">
     <use xlink:href="#DejaVuSans-83"/>
     <use x="63.476562" xlink:href="#DejaVuSans-86"/>
     <use x="131.884766" xlink:href="#DejaVuSans-77"/>
     <use x="218.164062" xlink:href="#DejaVuSans-32"/>
     <use x="249.951172" xlink:href="#DejaVuSans-84"/>
     <use x="310.816406" xlink:href="#DejaVuSans-114"/>
     <use x="351.929688" xlink:href="#DejaVuSans-97"/>
     <use x="413.208984" xlink:href="#DejaVuSans-105"/>
     <use x="440.992188" xlink:href="#DejaVuSans-110"/>
     <use x="504.371094" xlink:href="#DejaVuSans-32"/>
     <use x="536.158203" xlink:href="#DejaVuSans-83"/>
     <use x="599.634766" xlink:href="#DejaVuSans-99"/>
     <use x="654.615234" xlink:href="#DejaVuSans-111"/>
     <use x="715.796875" xlink:href="#DejaVuSans-114"/>
     <use x="756.878906" xlink:href="#DejaVuSans-101"/>
     <use x="818.402344" xlink:href="#DejaVuSans-58"/>
     <use x="852.09375" xlink:href="#DejaVuSans-32"/>
     <use x="883.880859" xlink:href="#DejaVuSans-48"/>
     <use x="947.503906" xlink:href="#DejaVuSans-46"/>
     <use x="979.291016" xlink:href="#DejaVuSans-57"/>
     <use x="1042.914062" xlink:href="#DejaVuSans-50"/>
     <use x="1106.537109" xlink:href="#DejaVuSans-54"/>
     <use x="1170.160156" xlink:href="#DejaVuSans-54"/>
     <use x="1233.783203" xlink:href="#DejaVuSans-56"/>
     <use x="1297.40625" xlink:href="#DejaVuSans-51"/>
     <use x="1361.029297" xlink:href="#DejaVuSans-48"/>
     <use x="1424.652344" xlink:href="#DejaVuSans-53"/>
     <use x="1488.275391" xlink:href="#DejaVuSans-53"/>
     <use x="1551.898438" xlink:href="#DejaVuSans-57"/>
     <use x="1615.521484" xlink:href="#DejaVuSans-49"/>
     <use x="1679.144531" xlink:href="#DejaVuSans-50"/>
     <use x="1742.767578" xlink:href="#DejaVuSans-49"/>
     <use x="1806.390625" xlink:href="#DejaVuSans-48"/>
     <use x="1870.013672" xlink:href="#DejaVuSans-52"/>
     <use x="1933.636719" xlink:href="#DejaVuSans-56"/>
    </g>
   </g>
   <g id="legend_1">
    <g id="patch_7">
     <path d="M 328.06375 302.584 
L 407.72 302.584 
Q 409.72 302.584 409.72 300.584 
L 409.72 272.22775 
Q 409.72 270.22775 407.72 270.22775 
L 328.06375 270.22775 
Q 326.06375 270.22775 326.06375 272.22775 
L 326.06375 300.584 
Q 326.06375 302.584 328.06375 302.584 
z
" style="fill:#ffffff;opacity:0.8;stroke:#cccccc;stroke-linejoin:miter;"/>
    </g>
    <g id="line2d_15">
     <path d="M 330.06375 278.326187 
L 350.06375 278.326187 
" style="fill:none;stroke:#ff0000;stroke-linecap:square;stroke-width:1.5;"/>
    </g>
    <g id="line2d_16"/>
    <g id="text_14">
     <!-- predicted -->
     <defs>
      <path d="M 18.109375 8.203125 
L 18.109375 -20.796875 
L 9.078125 -20.796875 
L 9.078125 54.6875 
L 18.109375 54.6875 
L 18.109375 46.390625 
Q 20.953125 51.265625 25.265625 53.625 
Q 29.59375 56 35.59375 56 
Q 45.5625 56 51.78125 48.09375 
Q 58.015625 40.1875 58.015625 27.296875 
Q 58.015625 14.40625 51.78125 6.484375 
Q 45.5625 -1.421875 35.59375 -1.421875 
Q 29.59375 -1.421875 25.265625 0.953125 
Q 20.953125 3.328125 18.109375 8.203125 
z
M 48.6875 27.296875 
Q 48.6875 37.203125 44.609375 42.84375 
Q 40.53125 48.484375 33.40625 48.484375 
Q 26.265625 48.484375 22.1875 42.84375 
Q 18.109375 37.203125 18.109375 27.296875 
Q 18.109375 17.390625 22.1875 11.75 
Q 26.265625 6.109375 33.40625 6.109375 
Q 40.53125 6.109375 44.609375 11.75 
Q 48.6875 17.390625 48.6875 27.296875 
z
" id="DejaVuSans-112"/>
      <path d="M 45.40625 46.390625 
L 45.40625 75.984375 
L 54.390625 75.984375 
L 54.390625 0 
L 45.40625 0 
L 45.40625 8.203125 
Q 42.578125 3.328125 38.25 0.953125 
Q 33.9375 -1.421875 27.875 -1.421875 
Q 17.96875 -1.421875 11.734375 6.484375 
Q 5.515625 14.40625 5.515625 27.296875 
Q 5.515625 40.1875 11.734375 48.09375 
Q 17.96875 56 27.875 56 
Q 33.9375 56 38.25 53.625 
Q 42.578125 51.265625 45.40625 46.390625 
z
M 14.796875 27.296875 
Q 14.796875 17.390625 18.875 11.75 
Q 22.953125 6.109375 30.078125 6.109375 
Q 37.203125 6.109375 41.296875 11.75 
Q 45.40625 17.390625 45.40625 27.296875 
Q 45.40625 37.203125 41.296875 42.84375 
Q 37.203125 48.484375 30.078125 48.484375 
Q 22.953125 48.484375 18.875 42.84375 
Q 14.796875 37.203125 14.796875 27.296875 
z
" id="DejaVuSans-100"/>
      <path d="M 18.3125 70.21875 
L 18.3125 54.6875 
L 36.8125 54.6875 
L 36.8125 47.703125 
L 18.3125 47.703125 
L 18.3125 18.015625 
Q 18.3125 11.328125 20.140625 9.421875 
Q 21.96875 7.515625 27.59375 7.515625 
L 36.8125 7.515625 
L 36.8125 0 
L 27.59375 0 
Q 17.1875 0 13.234375 3.875 
Q 9.28125 7.765625 9.28125 18.015625 
L 9.28125 47.703125 
L 2.6875 47.703125 
L 2.6875 54.6875 
L 9.28125 54.6875 
L 9.28125 70.21875 
z
" id="DejaVuSans-116"/>
     </defs>
     <g transform="translate(358.06375 281.826187)scale(0.1 -0.1)">
      <use xlink:href="#DejaVuSans-112"/>
      <use x="63.476562" xlink:href="#DejaVuSans-114"/>
      <use x="104.558594" xlink:href="#DejaVuSans-101"/>
      <use x="166.082031" xlink:href="#DejaVuSans-100"/>
      <use x="229.558594" xlink:href="#DejaVuSans-105"/>
      <use x="257.341797" xlink:href="#DejaVuSans-99"/>
      <use x="312.322266" xlink:href="#DejaVuSans-116"/>
      <use x="351.53125" xlink:href="#DejaVuSans-101"/>
      <use x="413.054688" xlink:href="#DejaVuSans-100"/>
     </g>
    </g>
    <g id="line2d_17">
     <path d="M 330.06375 293.004312 
L 350.06375 293.004312 
" style="fill:none;stroke:#0000ff;stroke-linecap:square;stroke-width:1.5;"/>
    </g>
    <g id="line2d_18"/>
    <g id="text_15">
     <!-- Actual -->
     <defs>
      <path d="M 34.1875 63.1875 
L 20.796875 26.90625 
L 47.609375 26.90625 
z
M 28.609375 72.90625 
L 39.796875 72.90625 
L 67.578125 0 
L 57.328125 0 
L 50.6875 18.703125 
L 17.828125 18.703125 
L 11.1875 0 
L 0.78125 0 
z
" id="DejaVuSans-65"/>
      <path d="M 8.5 21.578125 
L 8.5 54.6875 
L 17.484375 54.6875 
L 17.484375 21.921875 
Q 17.484375 14.15625 20.5 10.265625 
Q 23.53125 6.390625 29.59375 6.390625 
Q 36.859375 6.390625 41.078125 11.03125 
Q 45.3125 15.671875 45.3125 23.6875 
L 45.3125 54.6875 
L 54.296875 54.6875 
L 54.296875 0 
L 45.3125 0 
L 45.3125 8.40625 
Q 42.046875 3.421875 37.71875 1 
Q 33.40625 -1.421875 27.6875 -1.421875 
Q 18.265625 -1.421875 13.375 4.4375 
Q 8.5 10.296875 8.5 21.578125 
z
M 31.109375 56 
z
" id="DejaVuSans-117"/>
      <path d="M 9.421875 75.984375 
L 18.40625 75.984375 
L 18.40625 0 
L 9.421875 0 
z
" id="DejaVuSans-108"/>
     </defs>
     <g transform="translate(358.06375 296.504312)scale(0.1 -0.1)">
      <use xlink:href="#DejaVuSans-65"/>
      <use x="68.392578" xlink:href="#DejaVuSans-99"/>
      <use x="123.373047" xlink:href="#DejaVuSans-116"/>
      <use x="162.582031" xlink:href="#DejaVuSans-117"/>
      <use x="225.960938" xlink:href="#DejaVuSans-97"/>
      <use x="287.240234" xlink:href="#DejaVuSans-108"/>
     </g>
    </g>
   </g>
  </g>
 </g>
 <defs>
  <clipPath id="pe28bef693e">
   <rect height="266.112" width="357.12" x="57.6" y="41.472"/>
  </clipPath>
 </defs>
</svg>
